<svg width="25" height="22" viewBox="0 0 25 22" fill="none" xmlns="http://www.w3.org/2000/svg">
<g clip-path="url(#clip0)">
<path d="M22.6994 2.76147H2.30063C1.03208 2.76147 0 3.66966 0 4.78741C0 5.90374 1.03208 6.81197 2.30063 6.81197H22.6994C23.9679 6.81197 25 5.90374 25 4.78741C25 3.66966 23.9679 2.76147 22.6994 2.76147Z" fill="white"/>
<path d="M22.6994 8.97479H2.30063C1.03208 8.97479 0 9.88298 0 11.0007C0 12.1171 1.03208 13.0253 2.30063 13.0253H22.6994C23.9679 13.0253 25 12.1171 25 11.0007C25 9.88298 23.9679 8.97479 22.6994 8.97479Z" fill="white"/>
<path d="M22.6994 15.188H2.30063C1.03208 15.188 0 16.0962 0 17.2139C0 18.3302 1.03208 19.2385 2.30063 19.2385H22.6994C23.9679 19.2385 25 18.3302 25 17.2139C25 16.0962 23.9679 15.188 22.6994 15.188Z" fill="white"/>
</g>
<defs>
<clipPath id="clip0">
<rect width="25" height="22" fill="white"/>
</clipPath>
</defs>
</svg>
